HIERARCHY
ROOT Model_Hips
{
	OFFSET 0.000000 96.915077 0.000000
	CHANNELS 6 Xposition Yposition Zposition Xrotation Yrotation Zrotation
	JOINT Model_Spine
	{
		OFFSET 0.000000 11.137703 -1.289900
		CHANNELS 3 Xrotation Yrotation Zrotation
		JOINT Model_Spine1
		{
			OFFSET 0.000000 12.993942 -1.504922
			CHANNELS 3 Xrotation Yrotation Zrotation
			JOINT Model_Spine2
			{
				OFFSET 0.000000 14.850220 -1.719911
				CHANNELS 3 Xrotation Yrotation Zrotation
				JOINT Model_Neck
				{
					OFFSET 0.000000 16.706543 -1.934903
					CHANNELS 3 Xrotation Yrotation Zrotation
					JOINT Model_Head
					{
						OFFSET 0.000000 10.471298 2.002100
						CHANNELS 3 Xrotation Yrotation Zrotation
						JOINT Model_HeadTop_End
						{
							OFFSET 0.000000 20.842606 3.985100
							CHANNELS 3 Xrotation Yrotation Zrotation
							End Site
							{
								OFFSET 0.000000 21.220154 0.000000
							}
						}
					}
				}
				JOINT Model_LeftShoulder
				{
					OFFSET 7.008500 14.768600 -1.919946
					CHANNELS 3 Xrotation Yrotation Zrotation
					JOINT Model_LeftArm
					{
						OFFSET 14.126271 -3.718048 0.029937
						CHANNELS 3 Xrotation Yrotation Zrotation
						JOINT Model_LeftForeArm
						{
							OFFSET 28.282801 0.000000 0.000000
							CHANNELS 3 Xrotation Yrotation Zrotation
							JOINT Model_LeftHand
							{
								OFFSET 26.204689 0.000000 0.000000
								CHANNELS 3 Xrotation Yrotation Zrotation
								End Site
								{
									OFFSET 26.204704 0.000000 0.000000
								}
							}
						}
					}
				}
				JOINT Model_RightShoulder
				{
					OFFSET -7.008500 14.768555 -1.949840
					CHANNELS 3 Xrotation Yrotation Zrotation
					JOINT Model_RightArm
					{
						OFFSET -14.126281 -3.718018 -0.029932
						CHANNELS 3 Xrotation Yrotation Zrotation
						JOINT Model_RightForeArm
						{
							OFFSET -28.283798 0.000000 -0.000001
							CHANNELS 3 Xrotation Yrotation Zrotation
							JOINT Model_RightHand
							{
								OFFSET -26.204193 0.000000 -0.000001
								CHANNELS 3 Xrotation Yrotation Zrotation
								End Site
								{
									OFFSET -26.204208 0.000000 -0.000001
								}
							}
						}
					}
				}
			}
		}
	}
	JOINT Model_LeftUpLeg
	{
		OFFSET 8.327700 -6.193199 -0.402800
		CHANNELS 3 Xrotation Yrotation Zrotation
		JOINT Model_LeftLeg
		{
			OFFSET 0.735802 -42.108742 -0.610721
			CHANNELS 3 Xrotation Yrotation Zrotation
			JOINT Model_LeftFoot
			{
				OFFSET -0.735806 -36.833748 -0.172876
				CHANNELS 3 Xrotation Yrotation Zrotation
				JOINT Model_LeftToeBase
				{
					OFFSET -0.565857 -11.977769 16.297714
					CHANNELS 3 Xrotation Yrotation Zrotation
					JOINT Model_LeftToe_End
					{
						OFFSET -0.111712 -0.312793 7.857784
						CHANNELS 3 Xrotation Yrotation Zrotation
						End Site
						{
							OFFSET -0.111712 -0.312793 7.857784
						}
					}
				}
			}
		}
	}
	JOINT Model_RightUpLeg
	{
		OFFSET -8.327700 -6.193199 -0.516500
		CHANNELS 3 Xrotation Yrotation Zrotation
		JOINT Model_RightLeg
		{
			OFFSET -0.735785 -42.108738 -0.434061
			CHANNELS 3 Xrotation Yrotation Zrotation
			JOINT Model_RightFoot
			{
				OFFSET 0.735776 -36.833748 -0.021630
				CHANNELS 3 Xrotation Yrotation Zrotation
				JOINT Model_RightToeBase
				{
					OFFSET 0.565817 -11.977745 15.903093
					CHANNELS 3 Xrotation Yrotation Zrotation
					JOINT Model_RightToe_End
					{
						OFFSET 0.111702 -0.312791 7.811342
						CHANNELS 3 Xrotation Yrotation Zrotation
						End Site
						{
							OFFSET 0.111702 -0.312791 7.811342
						}
					}
				}
			}
		}
	}
}
MOTION
Frames: 6
Frame Time: 0.016667
-3.505237 96.058914 26.383419 170.233381 72.584857 -171.329216 -0.574450 2.658533 0.334498 -1.137038 5.439418 0.313065 -1.137036 5.439376 0.313066 -0.115724 2.898005 0.059215 -0.115723 2.898004 0.059216 0.000000 -0.000001 -0.000000 1.778461 -7.104275 -14.148761 2.202249 22.746207 -49.961949 10.857861 -32.619621 -9.121384 -0.000004 0.000001 -0.000000 0.497277 16.654709 16.248315 -6.478864 -5.041588 49.983874 17.915444 25.811423 8.626714 -0.000002 0.000001 0.000001 -32.001619 7.107046 7.148703 31.781724 18.486863 7.878861 -5.740115 0.135201 1.025791 -6.303576 3.411234 -2.921463 -0.000000 0.000005 0.000001 -14.278059 -12.482649 -8.717852 41.130132 -6.475737 0.515197 -8.620530 -1.551288 10.752789 -18.856298 -1.744896 -0.075947 0.000000 -0.000001 0.000000 
-3.316042 95.897339 26.339808 171.205727 70.144130 -172.465009 -0.626787 2.974410 0.279065 -1.232316 6.080343 0.140115 -1.232317 6.080352 0.140114 0.005763 2.562335 0.007031 0.005776 2.562342 0.007028 -0.000000 -0.000002 0.000000 1.785494 -6.873525 -14.135813 2.605833 24.105624 -48.741657 10.454715 -32.309049 -9.313657 0.000000 -0.000000 0.000000 0.505437 16.491823 16.261571 -7.344922 -3.892730 50.185098 17.912550 27.126914 8.636135 0.000003 -0.000001 0.000001 -31.558660 6.976616 7.814831 28.881363 19.982852 8.847601 -5.050237 0.148634 1.155008 -6.209090 3.296727 -2.826033 -0.000002 -0.000003 -0.000001 -13.318051 -12.667430 -8.574234 41.162842 -5.961696 0.783285 -9.442510 -1.615260 10.604799 -19.057570 -1.596431 -0.126596 -0.000000 -0.000001 0.000000 
-3.117795 95.705200 26.197395 171.932568 67.751590 -173.364531 -0.667171 3.227276 0.242832 -1.302612 6.594715 -0.006155 -1.302609 6.594719 -0.006155 0.105324 2.259523 -0.050680 0.105322 2.259507 -0.050680 0.000000 -0.000002 -0.000000 1.774073 -6.603327 -14.345144 2.958137 25.457992 -47.348599 10.169246 -31.724719 -9.653310 -0.000000 -0.000001 0.000001 0.520796 16.266613 16.258142 -8.321686 -2.715313 50.447422 18.015601 28.384507 8.532896 0.000002 0.000000 -0.000002 -30.998694 6.841593 8.445941 25.711410 21.327978 9.660894 -4.321689 0.163028 1.190409 -6.332771 2.920465 -2.501611 0.000002 0.000002 0.000001 -12.374979 -12.803842 -8.389144 41.203830 -6.154457 1.139818 -10.247957 -1.695756 10.701370 -19.145213 -1.507620 -0.160697 0.000000 -0.000001 0.000000 
-2.908014 95.496048 25.939163 172.402663 65.336312 -173.985054 -0.704757 3.387353 0.210728 -1.366609 6.923099 -0.151283 -1.366607 6.923093 -0.151282 0.185758 1.998505 -0.099479 0.185756 1.998537 -0.099482 0.000000 -0.000002 0.000000 1.749840 -6.261942 -14.748226 3.122090 26.754968 -45.873931 9.980700 -30.731733 -10.017582 -0.000002 -0.000001 0.000001 0.518491 16.116460 16.327279 -9.449225 -1.446023 50.684447 18.122391 29.542467 8.381019 0.000002 0.000000 -0.000002 -30.381446 6.696003 8.961485 22.403311 22.487882 10.225280 -3.582226 0.170056 1.268552 -6.644258 2.515295 -2.149838 0.000000 -0.000001 -0.000000 -11.504283 -12.843354 -8.213797 41.284098 -7.043599 1.576112 -10.970076 -1.797367 11.097561 -19.199925 -1.490910 -0.171750 0.000000 0.000000 0.000000 
-2.687563 95.272614 25.551193 172.671253 62.873332 -174.355400 -0.739336 3.448945 0.169375 -1.424467 7.055057 -0.315627 -1.424470 7.055068 -0.315626 0.244543 1.783149 -0.127320 0.244535 1.783142 -0.127318 -0.000000 0.000000 -0.000000 1.723221 -5.869486 -15.240806 3.043941 27.943354 -44.533960 9.826156 -29.183448 -10.293393 -0.000004 -0.000000 0.000000 0.482239 16.148784 16.520136 -10.723375 -0.106185 50.816355 18.029975 30.630509 8.228477 -0.000001 0.000000 -0.000000 -29.752727 6.530080 9.294919 19.161172 23.431157 10.497554 -2.876252 0.164997 1.544541 -6.985040 2.284662 -1.947128 0.000002 -0.000000 -0.000001 -10.741722 -12.764462 -8.099871 41.477618 -8.427489 2.040435 -11.559738 -1.921042 11.790670 -19.330125 -1.542897 -0.162418 0.000000 -0.000000 0.000000 
-2.460002 95.036011 25.022903 172.842636 60.386010 -174.561508 -0.760992 3.443694 0.114311 -1.456780 7.053912 -0.503618 -1.456783 7.053917 -0.503618 0.274111 1.614879 -0.137713 0.274109 1.614884 -0.137713 -0.000000 0.000005 0.000000 1.701797 -5.497481 -15.704090 2.777770 28.971760 -43.593839 9.608430 -27.024711 -10.410095 0.000003 -0.000000 0.000001 0.418159 16.359703 16.796724 -12.086163 1.204545 50.825316 17.568524 31.724897 8.077001 0.000000 -0.000001 0.000000 -29.482624 6.225219 9.626233 16.877493 24.150972 10.555154 -1.677421 0.177602 0.642768 -7.197970 2.309324 -1.961398 -0.000001 -0.000002 0.000000 -10.083851 -12.593779 -8.093681 41.842292 -10.022345 2.470386 -11.966293 -2.061137 12.741721 -19.644027 -1.658509 -0.140400 0.000000 0.000000 0.000000 
